<?xml version="1.0" encoding="utf-8"?>
<!-- Generator: Adobe Illustrator 22.1.0, SVG Export Plug-In . SVG Version: 6.00 Build 0)  -->
<svg version="1.1" id="Layer_1" xmlns="http://www.w3.org/2000/svg" xmlns:xlink="http://www.w3.org/1999/xlink" x="0px" y="0px"
	 viewBox="0 0 504.3 504.3" style="enable-background:new 0 0 504.3 504.3;" xml:space="preserve">
<style type="text/css">
	.st0{fill:#F2EDDA;}
	.st1{fill:#AE938D;}
	.st2{fill:#63D797;}
	.st3{fill:#D12443;}
	.st4{fill:#51565F;}
</style>
<g transform="translate(1 1)">
	<path class="st0" d="M231.1,328h147.6c0,64.9-39.3,121.2-98.1,150.2c-26.5,13.7-57.2,20.5-89.6,20.5C87.7,498.6,3.3,422.7,3.3,328
		h72.5h75.1c2.6,5.1,8.5,8.5,14.5,8.5c3.4,0,6.8-0.9,9.4-2.6c2.6,6.8,8.5,11.1,16.2,11.1s13.7-5.1,16.2-11.1c2.6,1.7,6,2.6,9.4,2.6
		C222.6,336.5,228.5,333.1,231.1,328"/>
	<path class="st1" d="M191,379.2c0,0,8.5,12.8,8.5,17.1s-3.4,8.5-8.5,8.5c-5.1,0-8.5-4.3-8.5-8.5S191,379.2,191,379.2z M148.3,370.6
		c0,0-2.6,14.5-6,17.9c-3.4,3.4-8.5,3.4-11.9,0c-3.4-3.4-3.4-8.5,0-11.9C133.8,373.2,148.3,370.6,148.3,370.6z M251.6,376.6
		c3.4,3.4,3.4,8.5,0,11.9c-3.4,3.4-8.5,3.4-11.9,0c-3.4-3.4-6-17.9-6-17.9S248.2,373.2,251.6,376.6z"/>
	<path class="st2" d="M250.7,46.4c25.6,25.6,34.1,93.9,34.1,93.9c-11.1-2.6-21.3-4.3-30.7-5.1l0,0c-17.9-5.1-41.8-16.2-63.1-37.5
		c-34.1-34.1-34.1-93.9-34.1-93.9S208.1,3.7,250.7,46.4"/>
	<path class="st3" d="M254.1,135.1c17.9,5.1,30.7,5.1,30.7,5.1s25.6-8.5,51.2-8.5c76.8,0,162.1,50.3,162.1,162.1
		c0,110.9-67.4,204.8-145.1,204.8c-32.4,0-63.1-11.1-71.7-19.6l-0.9-0.9c58-29,98.1-85.3,98.1-150.2H231.1
		c-2.6,5.1-8.5,8.5-14.5,8.5c-3.4,0-6.8-0.9-9.4-2.6c-2.6,6.8-8.5,11.1-16.2,11.1s-13.7-5.1-16.2-11.1c-2.6,1.7-6,2.6-9.4,2.6
		c-6,0-11.9-3.4-14.5-8.5H75.8c-2.6-13.7-4.3-34.1-4.3-34.1c0-96.4,56.3-137.4,123.7-157.9C210.6,131.7,228.5,131.7,254.1,135.1
		L254.1,135.1z"/>
</g>
<path class="st4" d="M354.1,503.9c-5.1,0-19.6,0-35-2.6c-2.6,0-4.3-2.6-3.4-5.1c0-2.6,2.6-4.3,5.1-3.4c14.5,2.6,29,2.6,33.3,2.6
	c75.1,0,140.8-93.9,140.8-200.5C494.9,186.5,413,137,337.1,137c-24.7,0-49.5,8.5-49.5,8.5c-0.9,0-0.9,0-1.7,0
	c-2.6,0-53.8-0.9-97.3-43.5c-35-35-35-94.7-35-97.3s1.7-4.3,4.3-4.3s53.8,0.9,97.3,43.5c15.4,15.4,24.7,46.1,29.9,68.3
	c12.8-51.2,56.3-76.8,58.9-77.7c1.7-0.9,4.3-0.9,6,1.7c0.9,1.7,0.9,4.3-1.7,6c-0.9,0-54.6,31.6-57.2,93c9.4-2.6,28.2-6.8,46.9-6.8
	c80.2,0,166.4,52.1,166.4,166.4C503.5,408.3,435.2,503.9,354.1,503.9z M162.1,9c0.9,14.5,6,58.9,32.4,86.2
	c33.3,33.3,72.5,40.1,86.2,41c-2.6-16.2-11.9-65.7-32.4-86.2C215,16.6,175.8,10.7,162.1,9z M192,503.9C86.2,503.9,0,425.4,0,329
	c0-2.6,1.7-4.3,4.3-4.3h147.6c1.7,0,2.6,0.9,3.4,1.7c3.4,6,11.9,8.5,17.9,4.3c0.9-0.9,2.6-0.9,3.4-0.9s2.6,1.7,2.6,2.6
	c1.7,5.1,6.8,8.5,11.9,8.5c5.1,0,10.2-3.4,11.9-8.5c0.9-0.9,1.7-2.6,2.6-2.6s2.6,0,3.4,0.9c6,4.3,14.5,1.7,17.9-4.3
	c0.9-1.7,2.6-1.7,3.4-1.7H378c2.6,0,4.3,1.7,4.3,4.3C384,425.4,297.8,503.9,192,503.9z M8.5,333.2c2.6,89.6,83.6,162.1,183.5,162.1
	s180.9-72.5,183.5-162.1H234.7c-6,7.7-16.2,10.2-24.7,6.8c-4.3,6-10.2,10.2-17.9,10.2s-14.5-4.3-17.9-10.2c-8.5,3.4-18.8,0-24.7-6.8
	H8.5z M192,410c-6.8,0-12.8-6-12.8-12.8c0-5.1,6.8-15.4,9.4-19.6c1.7-2.6,5.1-2.6,6.8,0c2.6,4.3,9.4,13.7,9.4,19.6
	C204.8,404.1,198.8,410,192,410z M192,387.8c-2.6,4.3-4.3,7.7-4.3,9.4c0,2.6,1.7,4.3,4.3,4.3s4.3-1.7,4.3-4.3
	C196.3,395.5,194.6,392.1,192,387.8z M246.6,396.4c-3.4,0-6.8-1.7-9.4-3.4c-4.3-4.3-6-15.4-6.8-20.5c0-1.7,0-2.6,0.9-3.4
	s2.6-1.7,3.4-0.9c5.1,0.9,16.2,3.4,20.5,6.8c2.6,2.6,3.4,6,3.4,9.4c0,3.4-1.7,6.8-3.4,9.4C253.4,395.5,250,396.4,246.6,396.4z
	 M240.6,377.6c0.9,4.3,2.6,8.5,3.4,9.4c1.7,1.7,4.3,1.7,6,0c0.9-0.9,0.9-1.7,0.9-3.4s-0.9-2.6-0.9-3.4
	C249.2,380.2,244.9,378.5,240.6,377.6z M137.4,396.4c-3.4,0-6.8-0.9-9.4-3.4c-2.6-2.6-3.4-6-3.4-9.4c0-3.4,1.7-6.8,3.4-9.4
	c4.3-4.3,15.4-6,20.5-6.8c1.7,0,2.6,0,3.4,0.9s1.7,2.6,0.9,3.4c-0.9,5.1-3.4,16.2-6.8,20.5l0,0C144.2,395.5,140.8,396.4,137.4,396.4
	z M143.4,377.6c-4.3,0.9-8.5,2.6-9.4,3.4c-0.9,0.9-0.9,1.7-0.9,3.4c0,0.9,0.9,2.6,0.9,3.4c1.7,1.7,4.3,1.7,6,0
	C140.8,386.1,142.5,381.9,143.4,377.6z M72.5,299.1c-2.6,0-4.3-1.7-4.3-4.3c0-83.6,41.8-136.5,127.1-161.3c2.6-0.9,4.3,0.9,5.1,2.6
	c0.9,2.6-0.9,4.3-2.6,5.1c-81.9,23.9-120.3,73.4-120.3,153.6C76.8,297.4,75.1,299.1,72.5,299.1z M460.8,265c-1.7,0-3.4-1.7-4.3-3.4
	c-6.8-28.2-23-51.2-45.2-66.6c-1.7-1.7-2.6-4.3-0.9-6s4.3-2.6,6-0.9c23.9,17.1,41,41.8,48.6,71.7c0.9,2.6-0.9,4.3-3.4,5.1
	C460.8,265,460.8,265,460.8,265z M379.7,178.8h-0.9l-17.1-4.3c-2.6-0.9-3.4-2.6-3.4-5.1c0.9-2.6,2.6-3.4,5.1-3.4
	c6,0.9,11.9,2.6,17.9,4.3c2.6,0.9,3.4,3.4,2.6,5.1C383.1,177.9,381.4,178.8,379.7,178.8z"/>
</svg>
