<?xml version="1.0" encoding="utf-8"?>
<!-- Generator: Adobe Illustrator 22.1.0, SVG Export Plug-In . SVG Version: 6.00 Build 0)  -->
<svg version="1.1" id="Layer_1" xmlns="http://www.w3.org/2000/svg" xmlns:xlink="http://www.w3.org/1999/xlink" x="0px" y="0px"
	 viewBox="0 0 435.2 503.5" style="enable-background:new 0 0 435.2 503.5;" xml:space="preserve">
<style type="text/css">
	.st0{fill:#6BBEED;}
	.st1{fill:#AAB1BA;}
	.st2{fill:#F2EDDA;}
	.st3{fill:#D12443;}
	.st4{fill:#51565F;}
</style>
<g transform="translate(5 1)">
	<path class="st0" d="M33.4,71.5v426.7c-18.8,0-34.1-15.4-34.1-34.1V37.4C-0.7,71.5,33.4,71.5,33.4,71.5L33.4,71.5z"/>
	<path class="st1" d="M67.5,37.4v34.1H33.4c0,0-34.1,0-34.1-34.1v-8.5c0-14.5,11.1-25.6,25.6-25.6h401.1c-9.4,0-17.1,15.4-17.1,34.1
		H135.8H67.5z M425.9,71.5H135.8V37.4h273.1C408.9,56.2,416.5,71.5,425.9,71.5z"/>
	<path class="st0" d="M425.9,71.5v392.5c0,17.9-15.4,34.1-34.1,34.1H33.4V71.5h34.1v68.3l34.1-34.1l34.1,34.1V71.5H425.9z"/>
	<polygon class="st2" points="118.7,310.5 306.5,310.5 306.5,173.9 118.7,173.9 	"/>
	<polygon class="st3" points="135.8,71.5 135.8,139.8 101.7,105.7 67.5,139.8 67.5,71.5 67.5,37.4 135.8,37.4 	"/>
</g>
<path class="st4" d="M396.8,503.5H38.4C17.9,503.5,0,485.5,0,465.1V29.9C0,13.7,13.7,0,29.9,0h401.1c2.6,0,4.3,1.7,4.3,4.3
	s-1.7,4.3-4.3,4.3H29.9c-11.9,0-21.3,9.4-21.3,21.3v8.5c0,29,29,29.9,29.9,29.9c2.6,0,4.3,1.7,4.3,4.3v392.5c0,2.6-1.7,4.3-4.3,4.3
	s-4.3-1.7-4.3-4.3V76.8C26.5,75.9,15.4,72.5,8.5,64v401.1c0,16.2,13.7,29.9,29.9,29.9h358.4c16.2,0,29.9-13.7,29.9-29.9V76.8H174.9
	c-2.6,0-4.3-1.7-4.3-4.3s1.7-4.3,4.3-4.3h256c2.6,0,4.3,1.7,4.3,4.3v392.5C435.2,485.5,417.3,503.5,396.8,503.5z M311.5,315.7H123.7
	c-2.6,0-4.3-1.7-4.3-4.3V174.9c0-2.6,1.7-4.3,4.3-4.3h187.7c2.6,0,4.3,1.7,4.3,4.3v136.5C315.7,314,314,315.7,311.5,315.7z
	 M128,307.2h179.2v-128H128L128,307.2L128,307.2z M260.3,264.5h-85.3c-2.6,0-4.3-1.7-4.3-4.3s1.7-4.3,4.3-4.3h85.3
	c2.6,0,4.3,1.7,4.3,4.3C264.5,262.8,262.8,264.5,260.3,264.5z M226.1,230.4h-51.2c-2.6,0-4.3-1.7-4.3-4.3s1.7-4.3,4.3-4.3h51.2
	c2.6,0,4.3,1.7,4.3,4.3S228.7,230.4,226.1,230.4z M140.8,145.1c-0.9,0-2.6-0.9-3.4-0.9l-30.7-30.7l-30.7,30.7
	c-0.9,0.9-3.4,1.7-4.3,0.9c-1.7-0.9-2.6-2.6-2.6-4.3V42.7H39.3c-2.6,0-4.3-1.7-4.3-4.3s1.7-4.3,4.3-4.3h34.1c2.6,0,4.3,1.7,4.3,4.3
	v92.2l26.5-26.5c1.7-1.7,4.3-1.7,6,0l26.5,26.5V38.4c0-2.6,1.7-4.3,4.3-4.3h273.1c2.6,0,4.3,1.7,4.3,4.3s-1.7,4.3-4.3,4.3H145.1
	v98.1c0,1.7-0.9,3.4-2.6,4.3C141.7,145.1,141.7,145.1,140.8,145.1z"/>
</svg>
