<?xml version="1.0" encoding="utf-8"?>
<!-- Generator: Adobe Illustrator 22.1.0, SVG Export Plug-In . SVG Version: 6.00 Build 0)  -->
<svg version="1.1" id="Layer_1" xmlns="http://www.w3.org/2000/svg" xmlns:xlink="http://www.w3.org/1999/xlink" x="0px" y="0px"
	 viewBox="0 0 502.6 502.6" style="enable-background:new 0 0 502.6 502.6;" xml:space="preserve">
<style type="text/css">
	.st0{fill:#F2EDDA;}
	.st1{fill:#AAB1BA;}
	.st2{fill:#D12443;}
	.st3{fill:#51565F;}
</style>
<g transform="translate(3 1)">
	<path class="st0" d="M477.9,70.7v358.4c0,17.9-11.9,31.6-29.9,34.1l-29.9-50.3l-0.9-0.9c6-6.8,8.5-16.2,8.5-25.6
		c0-23.9-18.8-42.7-42.7-42.7s-42.7,18.8-42.7,42.7c0,9.4,3.4,17.9,8.5,24.7l-0.9,0.9l-29,51.2H119.5c-18.8,0-34.1-15.4-34.1-34.1
		V138.9V36.5V2.4h324.3C447.1,2.4,477.9,33.1,477.9,70.7z M389.1,429.9l19.6,33.3h-49.5l19.6-33.3v-0.9c1.7,0,2.6,0,4.3,0
		s3.4,0,5.1,0L389.1,429.9z"/>
	<path class="st1" d="M85.3,2.4v34.1v102.4c-37.5,0-68.3-30.7-68.3-68.3S47.8,2.4,85.3,2.4L85.3,2.4z"/>
	<path class="st2" d="M418.1,412c6-6.8,8.5-16.2,8.5-25.6c0-23.9-18.8-42.7-42.7-42.7c-23.9,0-42.7,18.8-42.7,42.7
		c0,9.4,2.6,17.9,8.5,24.7L349,412l-29,51.2h40.1l19.6-33.3v-0.9c1.7,0,2.6,0,4.3,0s3.4,0,5.1,0c10.2-0.9,18.8-6,25.6-12.8
		c-6.8,6.8-15.4,11.1-25.6,12.8v0.9l19.6,33.3h35c1.7,0,2.6,0,4.3,0c-1.7,0-2.6,0-4.3,0h-35l20.5,34.1l10.2-16.2l18.8-0.9L448,463.2
		l0,0L418.1,412z M415.6,415.4l-0.9,0.9L415.6,415.4z M359.2,463.2l-20.5,34.1l-10.2-16.2l-18.8-0.9l10.2-17.1H359.2z"/>
</g>
<path class="st3" d="M341.8,502.6c-1.7,0-2.6-0.9-3.4-1.7l-9.4-14.5l-17.1-0.9c-1.7,0-2.6-0.9-3.4-2.6s-0.9-2.6,0-4.3l25.6-44.4
	c0.9-1.7,3.4-2.6,6-1.7c1.7,0.9,2.6,3.4,1.7,6L319.6,477l11.9,0.9c1.7,0,2.6,0.9,3.4,1.7l6.8,10.2l22.2-37.5c0.9-1.7,3.4-2.6,6-1.7
	c1.7,0.9,2.6,3.4,1.7,6L346,500.1C345.2,501.8,343.5,502.6,341.8,502.6L341.8,502.6z M432.2,502.6L432.2,502.6
	c-1.7,0-2.6-0.9-3.4-2.6l-25.6-43.5c-0.9-1.7-0.9-4.3,1.7-6c1.7-0.9,4.3-0.9,6,1.7l21.3,37.5l6.8-10.2c0.9-0.9,1.7-1.7,3.4-1.7
	l11.9-0.9l-22.2-37.5c-0.9-1.7-0.9-4.3,1.7-6c1.7-0.9,4.3-0.9,6,1.7l25.6,43.5c0.9,1.7,0.9,2.6,0,4.3s-1.7,2.6-3.4,2.6l-17.1,0.9
	l-9.4,14.5C434.8,501.8,433.1,502.6,432.2,502.6z M284.6,468.5H122.5c-21.3,0-38.4-17.1-38.4-38.4V41.8
	c-14.5,1.7-25.6,14.5-25.6,29.9c0,2.6-1.7,4.3-4.3,4.3s-4.3-1.7-4.3-4.3c0-21.3,17.1-38.4,38.4-38.4c2.6,0,4.3,1.7,4.3,4.3v392.5
	c0,16.2,13.7,29.9,29.9,29.9h162.1c2.6,0,4.3,1.7,4.3,4.3C288.9,466.8,287.1,468.5,284.6,468.5z M476.6,451.4c-0.9,0-1.7,0-2.6-0.9
	c-1.7-0.9-2.6-3.4-1.7-6c2.6-4.3,4.3-9.4,4.3-14.5V71.7c0-35-29-64-64-64H88.3c-35,0-64,29-64,64c0,23,11.9,43.5,32.4,55.5
	c1.7,0.9,2.6,3.4,1.7,6c-0.9,1.7-3.4,2.6-6,1.7C30.3,122,16.6,98.1,16.6,72.5l0,0l0,0l0,0l0,0C16.6,32.4,49.1,0,89.2,0h324.3
	C453.5,0,486,32.4,486,72.5v358.4c0,6.8-1.7,12.8-5.1,18.8C479.1,450.6,477.4,451.4,476.6,451.4z M387,434.3
	c-25.6,0-46.9-21.3-46.9-46.9s21.3-46.9,46.9-46.9s46.9,21.3,46.9,46.9S412.6,434.3,387,434.3z M387,349
	c-21.3,0-38.4,17.1-38.4,38.4s17.1,38.4,38.4,38.4s38.4-17.1,38.4-38.4S408.3,349,387,349z M276.1,400.2h-34.1
	c-1.7,0-2.6-0.9-3.4-1.7c-0.9-0.9-0.9-2.6,0-4.3c1.7-4.3,3.4-8.5,3.4-11.1c-5.1,0.9-14.5,8.5-22.2,15.4c-0.9,0.9-3.4,1.7-4.3,0.9
	c-1.7-0.9-2.6-2.6-2.6-4.3v-12.8c-4.3,3.4-11.9,9.4-17.9,16.2c-1.7,1.7-3.4,1.7-5.1,0.9c-1.7-0.9-2.6-3.4-1.7-5.1
	c4.3-11.9,14.5-45.2,5.1-58c-2.6-3.4-5.1-4.3-10.2-4.3c-8.5,0-14.5,3.4-17.9,8.5c-6,9.4-4.3,26.5,5.1,44.4c0.9,1.7,0,4.3-1.7,6
	c-1.7,0.9-4.3,0-6-1.7c-10.2-21.3-11.9-40.1-4.3-52.9c5.1-8.5,14.5-12.8,25.6-12.8c7.7,0,13.7,2.6,17.1,8.5c8.5,11.9,4.3,35,0,50.3
	c12.8-10.2,16.2-9.4,17.9-8.5c2.6,0.9,3.4,2.6,3.4,6v7.7c6-5.1,15.4-11.9,21.3-11.9c2.6,0,5.1,0.9,6.8,3.4c2.6,3.4,0.9,9.4,0,13.7
	h27.3c2.6,0,4.3,1.7,4.3,4.3S278.6,400.2,276.1,400.2z M378.5,280.7h-85.3c-2.6,0-4.3-1.7-4.3-4.3s1.7-4.3,4.3-4.3h85.3
	c2.6,0,4.3,1.7,4.3,4.3S381,280.7,378.5,280.7z M259,280.7H156.6c-2.6,0-4.3-1.7-4.3-4.3s1.7-4.3,4.3-4.3H259c2.6,0,4.3,1.7,4.3,4.3
	S261.5,280.7,259,280.7z M412.6,229.5h-51.2c-2.6,0-4.3-1.7-4.3-4.3s1.7-4.3,4.3-4.3h51.2c2.6,0,4.3,1.7,4.3,4.3
	S415.1,229.5,412.6,229.5z M327.3,229.5h-85.3c-2.6,0-4.3-1.7-4.3-4.3s1.7-4.3,4.3-4.3h85.3c2.6,0,4.3,1.7,4.3,4.3
	S329.8,229.5,327.3,229.5z M207.8,229.5h-51.2c-2.6,0-4.3-1.7-4.3-4.3s1.7-4.3,4.3-4.3h51.2c2.6,0,4.3,1.7,4.3,4.3
	S210.3,229.5,207.8,229.5z M395.5,178.3h-85.3c-2.6,0-4.3-1.7-4.3-4.3s1.7-4.3,4.3-4.3h85.3c2.6,0,4.3,1.7,4.3,4.3
	S398.1,178.3,395.5,178.3z M276.1,178.3H156.6c-2.6,0-4.3-1.7-4.3-4.3s1.7-4.3,4.3-4.3h119.5c2.6,0,4.3,1.7,4.3,4.3
	S278.6,178.3,276.1,178.3z M344.3,127.1h-17.1c-2.6,0-4.3-1.7-4.3-4.3s1.7-4.3,4.3-4.3h17.1c2.6,0,4.3,1.7,4.3,4.3
	S346.9,127.1,344.3,127.1z M293.1,127.1h-68.3c-2.6,0-4.3-1.7-4.3-4.3s1.7-4.3,4.3-4.3h68.3c2.6,0,4.3,1.7,4.3,4.3
	S295.7,127.1,293.1,127.1z M190.7,127.1h-34.1c-2.6,0-4.3-1.7-4.3-4.3s1.7-4.3,4.3-4.3h34.1c2.6,0,4.3,1.7,4.3,4.3
	S193.3,127.1,190.7,127.1z"/>
</svg>
