<?xml version="1.0" encoding="utf-8"?>
<!-- Generator: Adobe Illustrator 22.1.0, SVG Export Plug-In . SVG Version: 6.00 Build 0)  -->
<svg version="1.1" id="Layer_1" xmlns="http://www.w3.org/2000/svg" xmlns:xlink="http://www.w3.org/1999/xlink" x="0px" y="0px"
	 viewBox="0 0 503.5 503.5" style="enable-background:new 0 0 503.5 503.5;" xml:space="preserve">
<style type="text/css">
	.st0{fill:#6BBEED;}
	.st1{fill:#FFE079;}
	.st2{fill:#ECF4F7;}
	.st3{fill:#51565F;}
</style>
<g transform="translate(3 1)">
	<path class="st0" d="M393.8,88.6c52.1,42.7,85.3,106.7,85.3,179.2c0,127.1-103.3,230.4-230.4,230.4S18.3,394.9,18.3,267.8
		S121.6,37.4,248.7,37.4v51.2c-99,0-179.2,80.2-179.2,179.2S149.7,447,248.7,447s179.2-80.2,179.2-179.2
		c0-71.7-42.7-133.1-103.3-162.1h0.9h68.3V88.6z"/>
	<polygon class="st1" points="393.8,88.6 393.8,105.7 325.5,105.7 325.5,88.6 325.5,20.3 393.8,20.3 	"/>
	<path class="st0" d="M248.7,191c-42.7,0-76.8,34.1-76.8,76.8s34.1,76.8,76.8,76.8s76.8-34.1,76.8-76.8S291.4,191,248.7,191
		 M248.7,139.8c70.8,0,128,57.2,128,128s-57.2,128-128,128s-128-57.2-128-128S177.9,139.8,248.7,139.8"/>
	<path class="st2" d="M248.7,88.6c23.9,0,46.9,5.1,68.3,13.7v3.4h7.7c60.6,29,103.3,90.5,103.3,162.1c0,99-80.2,179.2-179.2,179.2
		S69.5,366.8,69.5,267.8S149.7,88.6,248.7,88.6 M248.7,139.8c-70.8,0-128,57.2-128,128s57.2,128,128,128s128-57.2,128-128
		S319.6,139.8,248.7,139.8z"/>
	<g>
		<polygon class="st1" points="325.5,20.3 325.5,88.6 317,88.6 248.7,88.6 248.7,37.4 248.7,3.3 325.5,3.3 		"/>
		<path class="st1" d="M248.7,242.2c14.5,0,25.6,11.1,25.6,25.6s-11.1,25.6-25.6,25.6c-14.5,0-25.6-11.1-25.6-25.6
			S234.2,242.2,248.7,242.2"/>
	</g>
</g>
<path class="st3" d="M251.7,503.5c-129.7,0-234.7-105-234.7-234.7c0-128,103.3-232.1,230.4-234.7V4.3c0-2.6,1.7-4.3,4.3-4.3h76.8
	c2.6,0,4.3,1.7,4.3,4.3v98.1h59.7V25.6h-29.9c-2.6,0-4.3-1.7-4.3-4.3s1.7-4.3,4.3-4.3h34.1c2.6,0,4.3,1.7,4.3,4.3v85.3
	c0,2.6-1.7,4.3-4.3,4.3h-68.3c-2.6,0-4.3-1.7-4.3-4.3V93.9h-38.4c-2.6,0-4.3-1.7-4.3-4.3s1.7-4.3,4.3-4.3h38.4V8.5H256v260.3
	c0,2.6-1.7,4.3-4.3,4.3s-4.3-1.7-4.3-4.3v-20.5c-9.4,1.7-17.1,10.2-17.1,20.5c0,11.9,9.4,21.3,21.3,21.3c11.9,0,21.3-9.4,21.3-21.3
	c0-2.6,1.7-4.3,4.3-4.3s4.3,1.7,4.3,4.3c0,16.2-13.7,29.9-29.9,29.9s-29.9-13.7-29.9-29.9c0-15.4,11.1-27.3,25.6-29.9v-42.7
	c-38.4,2.6-68.3,34.1-68.3,72.5c0,40.1,32.4,72.5,72.5,72.5s72.5-32.4,72.5-72.5c0-28.2-15.4-52.9-40.1-64.9c-1.7-0.9-2.6-3.4-1.7-6
	c0.9-1.7,3.4-2.6,6-1.7c28.2,13.7,45.2,41.8,45.2,72.5c0,44.4-36.7,81.1-81.1,81.1s-81.1-36.7-81.1-81.1c0-43.5,34.1-78.5,76.8-81.1
	v-42.7c-66.6,2.6-119.5,57.2-119.5,123.7c0,68.3,55.5,123.7,123.7,123.7s123.7-55.5,123.7-123.7c0-52.1-33.3-99-82.8-116.9
	c-2.6-0.9-3.4-3.4-2.6-5.1s3.4-3.4,5.1-2.6C349,163,384,213.3,384,268.8c0,72.5-59.7,132.3-132.3,132.3s-132.3-59.7-132.3-132.3
	c0-71.7,57.2-129.7,128-132.3V93.9c-94.7,2.6-170.7,80.2-170.7,174.9c0,96.4,78.5,174.9,174.9,174.9s174.9-78.5,174.9-174.9
	c0-47.8-18.8-92.2-52.9-124.6c-1.7-1.7-1.7-4.3,0-6s4.3-1.7,6,0c35.8,35,55.5,81.1,55.5,131.4c0,101.5-81.9,183.5-183.5,183.5
	S68.3,371.2,68.3,269.7c0-99.8,80.2-180.9,179.2-183.5V43.5C124.6,46.1,25.6,145.9,25.6,269.7c0,124.6,101.5,226.1,226.1,226.1
	s226.1-101.5,226.1-226.1c0-52.1-17.9-102.4-50.3-142.5c-1.7-1.7-0.9-4.3,0.9-6c1.7-1.7,4.3-0.9,6,0.9
	c34.1,41.8,52.1,93.9,52.1,147.6C486.4,398.5,381.4,503.5,251.7,503.5z"/>
</svg>
