<?xml version="1.0" encoding="utf-8"?>
<!-- Generator: Adobe Illustrator 22.1.0, SVG Export Plug-In . SVG Version: 6.00 Build 0)  -->
<svg version="1.1" id="Layer_1" xmlns="http://www.w3.org/2000/svg" xmlns:xlink="http://www.w3.org/1999/xlink" x="0px" y="0px"
	 viewBox="0 0 503.5 503.5" style="enable-background:new 0 0 503.5 503.5;" xml:space="preserve">
<style type="text/css">
	.st0{fill:#63D797;}
	.st1{fill:#6BBEED;}
	.st2{fill:#D12443;}
	.st3{fill:#FFE079;}
	.st4{fill:#51565F;}
</style>
<g transform="translate(1 1)">
	<path class="st0" d="M498.2,28.9v221.9h-59.7c-17.1,0-17.1,17.1-17.1,17.1c0,7.7,6,11.9,8.5,13.7c10.2,6,17.1,17.1,17.1,29
		c0,18.8-17.1,34.1-42.7,34.1s-42.7-15.4-42.7-34.1c0-12.8,6.8-23.9,17.1-29.9c2.6-1.7,8.5-5.1,8.5-12.8c0,0,0-17.1-17.1-17.1H250.7
		V131.3c0-17.1,17.1-17.1,17.1-17.1c7.7,0,11.9,6,12.8,8.5c6,10.2,17.1,17.1,29.9,17.1c18.8,0,34.1-17.1,34.1-42.7
		s-15.4-42.7-34.1-42.7c-12.8,0-23.9,6.8-29,17.1c-1.7,2.6-6,8.5-13.7,8.5c0,0-17.1,0-17.1-17.1V3.3h221.9
		C487.1,3.3,498.2,14.4,498.2,28.9"/>
	<path class="st1" d="M310.5,54.5c18.8,0,34.1,17.1,34.1,42.7s-15.4,42.7-34.1,42.7c-12.8,0-23.9-6.8-29.9-17.1
		c-1.7-2.6-5.1-8.5-12.8-8.5c0,0-17.1,0-17.1,17.1v119.5H131.3c-17.1,0-17.1-17.1-17.1-17.1c0-7.7,6-11.9,8.5-12.8
		c10.2-6,17.1-17.1,17.1-29.9c0-18.8-17.1-34.1-42.7-34.1S54.5,172.2,54.5,191c0,12.8,6.8,23.9,17.1,29c2.6,1.7,8.5,6,8.5,13.7
		c0,0,0,17.1-17.1,17.1H3.3V28.9c0-14.5,11.1-25.6,25.6-25.6h221.9V63c0,17.1,17.1,17.1,17.1,17.1c7.7,0,11.9-6,13.7-8.5
		C286.6,61.3,297.7,54.5,310.5,54.5"/>
	<path class="st2" d="M250.7,438.5v59.7H28.9c-14.5,0-25.6-11.1-25.6-25.6V250.7H63c17.1,0,17.1-17.1,17.1-17.1
		c0-7.7-6-11.9-8.5-13.7c-10.2-6-17.1-17.1-17.1-29c0-18.8,17.1-34.1,42.7-34.1s42.7,15.4,42.7,34.1c0,12.8-6.8,23.9-17.1,29.9
		c-2.6,1.7-8.5,5.1-8.5,12.8c0,0,0,17.1,17.1,17.1h119.5v119.5c0,17.1-17.1,17.1-17.1,17.1c-7.7,0-11.9-6-12.8-8.5
		c-6-10.2-17.1-17.1-29.9-17.1c-18.8,0-34.1,17.1-34.1,42.7S172.2,447,191,447c12.8,0,23.9-6.8,29-17.1c1.7-2.6,6-8.5,13.7-8.5
		C233.7,421.4,250.7,421.4,250.7,438.5"/>
	<path class="st3" d="M498.2,250.7v221.9c0,14.5-11.1,25.6-25.6,25.6H250.7v-59.7c0-17.1-17.1-17.1-17.1-17.1
		c-7.7,0-11.9,6-13.7,8.5c-6,10.2-17.1,17.1-29,17.1c-18.8,0-34.1-17.1-34.1-42.7s15.4-42.7,34.1-42.7c12.8,0,23.9,6.8,29.9,17.1
		c1.7,2.6,5.1,8.5,12.8,8.5c0,0,17.1,0,17.1-17.1V250.7h119.5c17.1,0,17.1,17.1,17.1,17.1c0,7.7-6,11.9-8.5,12.8
		c-10.2,6-17.1,17.1-17.1,29.9c0,18.8,17.1,34.1,42.7,34.1s42.7-15.4,42.7-34.1c0-12.8-6.8-23.9-17.1-29c-2.6-1.7-8.5-6-8.5-13.7
		c0,0,0-17.1,17.1-17.1L498.2,250.7L498.2,250.7z"/>
</g>
<path class="st4" d="M473.6,503.5H285.9c-2.6,0-4.3-1.7-4.3-4.3s1.7-4.3,4.3-4.3h187.7c11.9,0,21.3-9.4,21.3-21.3V256h-55.5
	c-11.9,0-12.8,11.1-12.8,12.8c0,3.4,2.6,6.8,6.8,9.4c11.9,6.8,18.8,19.6,18.8,33.3c0,22.2-19.6,38.4-46.9,38.4s-46.9-16.2-46.9-38.4
	c0-13.7,7.7-26.5,19.6-33.3c2.6-1.7,6-4.3,6-9.4c0-1.7-0.9-12.8-12.8-12.8H256v115.2c0,17.1-13.7,21.3-21.3,21.3
	c-6.8,0-12.8-3.4-17.1-10.2c-5.1-9.4-15.4-15.4-25.6-15.4c-17.1,0-29.9,16.2-29.9,38.4c0,22.2,12.8,38.4,29.9,38.4
	c10.2,0,20.5-5.1,25.6-14.5c4.3-6.8,10.2-11.1,17.1-11.1c7.7,0,21.3,4.3,21.3,21.3v59.7c0,2.6-1.7,4.3-4.3,4.3H29.9
	C13.7,503.5,0,489.8,0,473.6V285.9c0-2.6,1.7-4.3,4.3-4.3s4.3,1.7,4.3,4.3v187.7c0,11.9,9.4,21.3,21.3,21.3h217.6v-55.5
	c0-11.9-11.1-12.8-12.8-12.8c-3.4,0-6.8,2.6-9.4,6.8c-6.8,11.9-19.6,18.8-33.3,18.8c-22.2,0-38.4-19.6-38.4-46.9
	c0-27.3,16.2-46.9,38.4-46.9c13.7,0,26.5,7.7,33.3,19.6c1.7,2.6,4.3,6,9.4,6c1.7,0,12.8-0.9,12.8-12.8V256H132.3
	c-17.1,0-21.3-13.7-21.3-21.3c0-6.8,3.4-12.8,10.2-17.1c9.4-5.1,15.4-15.4,15.4-25.6c0-17.1-16.2-29.9-38.4-29.9
	S59.7,174.9,59.7,192c0,10.2,5.1,20.5,14.5,25.6c6.8,4.3,11.1,10.2,11.1,17.1c0,7.7-4.3,21.3-21.3,21.3H4.3c-2.6,0-4.3-1.7-4.3-4.3
	V29.9C0,13.7,13.7,0,29.9,0h187.7c2.6,0,4.3,1.7,4.3,4.3s-1.7,4.3-4.3,4.3H29.9c-11.9,0-21.3,9.4-21.3,21.3v217.6H64
	c11.9,0,12.8-11.1,12.8-12.8c0-3.4-2.6-6.8-6.8-9.4C58,218.5,51.2,205.7,51.2,192c0-22.2,19.6-38.4,46.9-38.4s46.9,16.2,46.9,38.4
	c0,13.7-7.7,26.5-19.6,33.3c-2.6,1.7-6,4.3-6,9.4c0,1.7,0.9,12.8,12.8,12.8h115.2V132.3c0-17.1,13.7-21.3,21.3-21.3
	c6.8,0,12.8,3.4,17.1,10.2c5.1,9.4,15.4,15.4,25.6,15.4c17.1,0,29.9-16.2,29.9-38.4s-12.8-38.4-29.9-38.4
	c-10.2,0-20.5,5.1-25.6,14.5c-4.3,6.8-10.2,11.1-17.1,11.1c-7.7,0-21.3-4.3-21.3-21.3V4.3c0-2.6,1.7-4.3,4.3-4.3h221.9
	c16.2,0,29.9,13.7,29.9,29.9v187.7c0,2.6-1.7,4.3-4.3,4.3s-4.3-1.7-4.3-4.3V29.9c0-11.9-9.4-21.3-21.3-21.3H256V64
	c0,11.9,11.1,12.8,12.8,12.8c3.4,0,6.8-2.6,9.4-6.8c6.8-11.9,19.6-18.8,33.3-18.8c22.2,0,38.4,19.6,38.4,46.9s-16.2,46.9-38.4,46.9
	c-13.7,0-26.5-7.7-33.3-19.6c-1.7-2.6-4.3-6-9.4-6c-1.7,0-12.8,0.9-12.8,12.8v115.2h115.2c17.1,0,21.3,13.7,21.3,21.3
	c0,6.8-3.4,12.8-10.2,17.1c-9.4,5.1-15.4,15.4-15.4,25.6c0,17.1,16.2,29.9,38.4,29.9c22.2,0,38.4-12.8,38.4-29.9
	c0-10.2-5.1-20.5-14.5-25.6c-6.8-4.3-11.1-10.2-11.1-17.1c0-7.7,4.3-21.3,21.3-21.3h59.7c2.6,0,4.3,1.7,4.3,4.3v221.9
	C503.5,489.8,489.8,503.5,473.6,503.5z"/>
</svg>
